# xmcd
#
# Track frame offsets: 
#        150
#        19721
#        36053
#        53782
#        68420
#        90383
#        109204
#        125628
#        145283
#
# Disc length: 2148 seconds
#
# Revision: 0
# Processed by: cddbd v1.5.2PL0 Copyright (c) Steve Scherf et al.
# Submitted via: ExactAudioCopyFreeDBPlugin 1.0
#
DISCID=72086209
DTITLE=The Sharpeez - Wild One
DYEAR=2018
DGENRE=Rock
TTITLE0=Automatic Mode
TTITLE1=Bullet
TTITLE2=Dr feel Good
TTITLE3=Losing Hand
TTITLE4=Stilletto Heels
TTITLE5=Wild One
TTITLE6=Heartache Express
TTITLE7=Heat of the Night
TTITLE8=Desperate Man
EXTD=
EXTT0=
EXTT1=
EXTT2=
EXTT3=
EXTT4=
EXTT5=
EXTT6=
EXTT7=
EXTT8=
PLAYORDER=
